<?xml version="1.0" encoding="UTF-8"?>
<svg width="700pt" height="700pt" version="1.1" viewBox="80 90 550 395" xmlns="http://www.w3.org/2000/svg">
 <path d="m595 122.51h-332.5c-6.2539 0-12.031-3.3359-15.156-8.75-3.125-5.4141-3.125-12.086 0-17.5 3.125-5.4141 8.9023-8.75 15.156-8.75h332.5c6.2539 0 12.031 3.3359 15.156 8.75 3.125 5.4141 3.125 12.086 0 17.5-3.125 5.4141-8.9023 8.75-15.156 8.75zm17.5 157.5c0-4.6406-1.8438-9.0898-5.125-12.375-3.2812-3.2812-7.7344-5.125-12.375-5.125h-490c-6.2539 0-12.031 3.3359-15.156 8.75-3.125 5.4141-3.125 12.086 0 17.5 3.125 5.4141 8.9023 8.75 15.156 8.75h490c4.6445 0 9.0938-1.8438 12.379-5.1289 3.2812-3.2812 5.125-7.7344 5.1211-12.379zm0 175c0-4.6406-1.8438-9.0898-5.125-12.375-3.2812-3.2812-7.7344-5.125-12.375-5.125h-332.5c-6.2539 0-12.031 3.3359-15.156 8.75-3.125 5.4141-3.125 12.086 0 17.5 3.125 5.4141 8.9023 8.75 15.156 8.75h332.5c4.6445 0 9.0938-1.8438 12.379-5.1289 3.2812-3.2812 5.125-7.7344 5.1211-12.379z"/>
</svg>
