<?xml version="1.0" encoding="UTF-8"?>
<svg width="700pt" height="700pt" version="1.1" viewBox="0 0 700 600" xmlns="http://www.w3.org/2000/svg">
  <path d="m410.36 269.23c26.062 0 47.277 21.215 47.277 47.168 0 5.9219 4.7383 10.77 10.77 10.77 5.9219 0 10.77-4.8477 10.77-10.77 0-12.602 4.8477-24.445 13.891-33.387 8.9375-8.8281 20.676-13.781 33.277-13.781 5.9219 0 10.77-4.8477 10.77-10.77 0-5.9219-4.8477-10.77-10.77-10.77-12.602 0-24.445-4.9531-33.383-14.109-8.9375-8.6172-13.785-20.355-13.785-33.062 0-5.9219-4.8477-10.77-10.77-10.77-6.0312 0-10.77 4.8477-10.77 10.77 0 12.602-4.9531 24.34-13.785 33.168-9.0469 9.0508-20.895 14.004-33.492 14.004-6.0312 0-10.77 4.8477-10.77 10.77 0 5.9219 4.7383 10.77 10.77 10.77z"/>
  <path d="m264.12 166.06c26.062 0 47.277 21.215 47.277 47.168 0 5.9219 4.7383 10.77 10.77 10.77 5.9219 0 10.77-4.8477 10.77-10.77 0-12.602 4.8477-24.445 13.785-33.383 8.9375-8.832 20.785-13.785 33.383-13.785 5.9219 0 10.77-4.8477 10.77-10.77s-4.8477-10.77-10.77-10.77c-12.602 0-24.445-4.9531-33.492-14-8.832-8.7227-13.676-20.57-13.676-33.277 0-5.9219-4.8438-10.77-10.77-10.77-6.0312 0-10.77 4.8477-10.77 10.77 0 12.492-5.0625 24.555-13.785 33.277-9.1523 9.0469-21 14-33.492 14-6.0312 0-10.77 4.8477-10.77 10.77s4.7383 10.77 10.77 10.77z"/>
  <path d="m547.45 401.37c-34.355 18.848-73.34 28.863-112.86 28.863-62.676 0-121.69-24.445-166.06-68.922-73.336-73.34-89.703-188.03-39.844-278.93 2.3711-4.1992 1.6172-9.3711-1.832-12.816-3.3359-3.3359-8.6133-4.0898-12.812-1.8281-21.43 11.848-41.031 26.492-58.262 43.723-99.938 100.05-99.938 262.66 0 362.6 48.461 48.461 112.86 75.168 181.46 75.168 68.492 0 132.89-26.707 181.25-75.062 17.445-17.445 32.094-37.047 43.617-58.262 2.3672-4.1992 1.6133-9.3711-1.832-12.816-3.3398-3.3359-8.6172-4.0898-12.816-1.7227z"/>
  <path d="m608.41 68.707c-12.707 0-24.555-4.8477-33.383-13.895-8.9375-8.8281-13.785-20.676-13.785-33.273 0-5.9219-4.8477-10.77-10.77-10.77-6.0312 0-10.77 4.8477-10.77 10.77 0 12.492-4.9531 24.34-13.785 33.277-9.0469 8.9375-21 13.895-33.492 13.895-6.0312 0-10.77 4.8438-10.77 10.77 0 5.9219 4.7383 10.77 10.77 10.77 26.062 0 47.277 21.215 47.277 47.277 0 5.9219 4.7383 10.77 10.77 10.77 5.9219 0 10.77-4.8438 10.77-10.77 0-12.602 4.8477-24.445 13.785-33.492 8.9375-8.832 20.785-13.785 33.383-13.785 5.9219 0 10.77-4.8477 10.77-10.77 0-5.9258-4.8438-10.773-10.77-10.773z"/>
</svg>
