<?xml version="1.0" encoding="UTF-8"?>
<svg width="700pt" height="700pt" version="1.1" viewBox="20 20 650 500" xmlns="http://www.w3.org/2000/svg">
 <g>
  <path d="m400.07 116.67c-28.523-28.488-66.414-44.188-106.73-44.188-40.301 0-78.172 15.699-106.66 44.188-28.508 28.488-44.203 66.379-44.188 106.7 0 40.301 15.68 78.191 44.188 106.68 28.488 28.508 66.379 44.188 106.68 44.188 40.301 0 78.191-15.68 106.71-44.188 58.824-58.836 58.824-154.56 0.003906-213.38zm-106.7 231.32c-33.285 0-64.574-12.949-88.113-36.504-23.555-23.539-36.504-54.828-36.504-88.113s12.949-64.594 36.504-88.129c23.539-23.539 54.828-36.504 88.094-36.504 33.285 0 64.609 12.969 88.164 36.504 48.562 48.598 48.562 127.66 0 176.24-23.555 23.555-54.859 36.504-88.145 36.504z"/>
  <path d="m213.54 212.87c0.96094-7.1758-4.0938-13.773-11.305-14.734-7.0352-0.96094-13.773 4.0938-14.719 11.305-4.375 33.145 6.6836 65.73 30.344 89.406 2.5547 2.5547 5.9141 3.8516 9.2734 3.8516 3.3438 0 6.7188-1.2773 9.2734-3.832 5.1289-5.1289 5.1289-13.441 0-18.566-17.809-17.871-26.141-42.441-22.867-67.43z"/>
  <path d="m534.84 402.68c-26.426-21.422-74.41-60.953-102.6-84.246-5.7734 8.4336-12.285 16.504-19.773 23.992-7.4531 7.4375-15.504 14.016-23.992 19.863 23.273 28.176 62.809 76.125 84.211 102.53 11.41 14.121 24.5 21.961 37.852 22.664 0.61328 0.035156 1.2617 0.050781 1.9258 0.050781 8.1016 0 19.477-2.6602 30.957-14.141 12.406-12.406 14.508-24.711 14.086-32.848-0.73828-13.352-8.5586-26.457-22.664-37.867z"/>
 </g>
</svg>
