<?xml version="1.0" encoding="UTF-8"?>
<svg width="700pt" height="700pt" version="1.1" viewBox="90 80 520 400" xmlns="http://www.w3.org/2000/svg">
 <path d="m341.25 437.5v87.5c0 4.8281 3.9219 8.75 8.75 8.75s8.75-3.9219 8.75-8.75v-87.5c0-4.8281-3.9219-8.75-8.75-8.75s-8.75 3.9219-8.75 8.75zm95.656 24.238-17.148-40.25c-1.8906-4.4453-7.0352-6.5273-11.48-4.6367-4.4453 1.9062-6.5117 7.0352-4.6211 11.48l17.148 40.25c1.8906 4.4453 7.0352 6.5273 11.48 4.6367 4.4453-1.9062 6.5117-7.0352 4.6211-11.48zm-160.14 5.9141 17.656-40.023c1.9609-4.4102-0.050781-9.5898-4.4609-11.531-4.4258-1.9609-9.5898 0.050782-11.531 4.4609l-17.676 40.039c-1.9414 4.4102 0.070313 9.5742 4.4805 11.531 4.4102 1.9414 9.5898-0.050781 11.531-4.4805zm-44.328-82.477-61.863 61.879c-3.4141 3.4141-3.4141 8.9609 0 12.371 3.4141 3.4141 8.9609 3.4141 12.371 0l61.879-61.863c3.4141-3.4297 3.4141-8.9609 0-12.391-3.4297-3.4141-8.9609-3.4141-12.391 0zm296.99 61.879-61.863-61.879c-3.4297-3.4141-8.9609-3.4141-12.391 0-3.4141 3.4297-3.4141 8.9609 0 12.391l61.879 61.863c3.4141 3.4141 8.9609 3.4141 12.371 0 3.4141-3.4141 3.4141-8.9609 0-12.371zm-179.43-298.3c-72.434 0-131.25 58.816-131.25 131.25s58.816 131.25 131.25 131.25 131.25-58.816 131.25-131.25-58.816-131.25-131.25-131.25zm0 17.5c62.773 0 113.75 50.977 113.75 113.75s-50.977 113.75-113.75 113.75c-62.773 0-113.75-50.977-113.75-113.75s50.977-113.75 113.75-113.75zm-179.69 204.8 39.848-18.059c4.3906-1.9961 6.3516-7.1914 4.3594-11.586-1.9961-4.3906-7.1758-6.3516-11.586-4.3594l-39.848 18.059c-4.3906 1.9961-6.3516 7.1914-4.3594 11.586 1.9961 4.3906 7.1914 6.3516 11.586 4.3594zm368.74-21.523-40.355-16.871c-4.4609-1.8555-9.5898 0.24609-11.445 4.707-1.8711 4.4453 0.24609 9.5742 4.6914 11.445l40.371 16.871c4.4453 1.8555 9.5898-0.24609 11.445-4.707 1.8555-4.4453-0.24609-9.5742-4.707-11.445zm-346.55-78.277h-87.5c-4.8281 0-8.75 3.9219-8.75 8.75s3.9219 8.75 8.75 8.75h87.5c4.8281 0 8.75-3.9219 8.75-8.75s-3.9219-8.75-8.75-8.75zm253.75 8.75c0-53.129-43.121-96.25-96.25-96.25-4.8281 0-8.75 3.9219-8.75 8.75s3.9219 8.75 8.75 8.75c43.469 0 78.75 35.281 78.75 78.75 0 4.8281 3.9219 8.75 8.75 8.75s8.75-3.9219 8.75-8.75zm148.75-8.75h-87.5c-4.8281 0-8.75 3.9219-8.75 8.75s3.9219 8.75 8.75 8.75h87.5c4.8281 0 8.75-3.9219 8.75-8.75s-3.9219-8.75-8.75-8.75zm-61.336-73.988-40.637 16.223c-4.4805 1.7852-6.668 6.8789-4.8828 11.375 1.8008 4.4805 6.8945 6.668 11.375 4.8828l40.637-16.223c4.4805-1.8008 6.668-6.8945 4.8828-11.375-1.7852-4.4805-6.8945-6.668-11.375-4.8828zm-373.08 14.211 40.441 16.66c4.4805 1.8359 9.5898-0.29687 11.426-4.7617 1.8359-4.4609-0.29688-9.5898-4.7617-11.426l-40.461-16.641c-4.4609-1.8359-9.5742 0.29687-11.41 4.7617-1.8359 4.4609 0.28125 9.5742 4.7617 11.41zm356.48-110.9-61.879 61.863c-3.4141 3.4297-3.4141 8.9609 0 12.391 3.4297 3.4141 8.9609 3.4141 12.391 0l61.863-61.879c3.4141-3.4141 3.4141-8.9609 0-12.371-3.4141-3.4141-8.9609-3.4141-12.371 0zm-272.23 61.863-61.879-61.863c-3.4141-3.4141-8.9609-3.4141-12.371 0-3.4141 3.4141-3.4141 8.9609 0 12.371l61.863 61.879c3.4297 3.4141 8.9609 3.4141 12.391 0 3.4141-3.4297 3.4141-8.9609 0-12.391zm14.176-62.16 18.059 39.863c1.9961 4.3906 7.1758 6.3516 11.566 4.3594 4.4102-1.9961 6.3711-7.1758 4.375-11.586l-18.059-39.848c-1.9766-4.3906-7.1758-6.3516-11.566-4.3594-4.4102 1.9961-6.3516 7.1758-4.375 11.566zm163.8-8.1016-17.57 40.074c-1.9414 4.4102 0.070313 9.5742 4.4961 11.516s9.5898-0.070313 11.531-4.4961l17.551-40.059c1.9414-4.4258-0.070312-9.5898-4.4961-11.531-4.4102-1.9414-9.5898 0.070312-11.516 4.4961zm-74.934 38.816 0.61328 0.12109 0.57812 0.085938 0.54297 0.050781h0.59375l0.55859-0.035156 0.54297-0.050782 0.59375-0.12109 0.61328-0.15625 0.55859-0.17578 0.48828-0.21094 0.47266-0.22656 0.47266-0.26172 0.4375-0.28125 0.47266-0.35156 0.4375-0.36719 0.47266-0.45312 0.42188-0.47266 0.35156-0.45313 0.31641-0.47266 0.28125-0.45312 0.26172-0.52344 0.22656-0.54297 0.19141-0.57812 0.15625-0.57812 0.10547-0.54297 0.070312-0.54297 0.050781-0.55859v-87.832c0-4.8281-3.9219-8.75-8.75-8.75-4.8281 0-8.75 3.9219-8.75 8.75v87.5c0 4.0938 2.8164 7.543 6.6133 8.4883z" fill-rule="evenodd"/>
</svg>
